<mxfile host="app.diagrams.net" modified="2020-05-07T08:23:48.562Z" agent="5.0 (X11; Linux x86_64) AppleWebKit/537.36 (KHTML, like Gecko) Chrome/81.0.4044.129 Safari/537.36" etag="T4NXIPz0L9AiSQOX0HiW" version="13.0.8" type="github">
  <diagram id="C5RBs43oDa-KdzZeNtuy" name="Page-1">
    <mxGraphModel dx="2409" dy="650" grid="1" gridSize="10" guides="1" tooltips="1" connect="1" arrows="1" fold="1" page="1" pageScale="1" pageWidth="1169" pageHeight="827" math="0" shadow="0">
      <root>
        <mxCell id="WIyWlLk6GJQsqaUBKTNV-0" />
        <mxCell id="WIyWlLk6GJQsqaUBKTNV-1" parent="WIyWlLk6GJQsqaUBKTNV-0" />
        <mxCell id="WIyWlLk6GJQsqaUBKTNV-3" value="&lt;font style=&quot;font-size: 15px&quot;&gt;Hello!&lt;/font&gt;" style="rounded=1;whiteSpace=wrap;html=1;fontSize=12;glass=0;strokeWidth=1;shadow=0;" parent="WIyWlLk6GJQsqaUBKTNV-1" vertex="1">
          <mxGeometry x="520" y="40" width="120" height="40" as="geometry" />
        </mxCell>
        <mxCell id="Ekcc26AsMmsR5pWDsE6a-2" value="" style="endArrow=classic;html=1;" edge="1" parent="WIyWlLk6GJQsqaUBKTNV-1">
          <mxGeometry width="50" height="50" relative="1" as="geometry">
            <mxPoint x="579.71" y="80" as="sourcePoint" />
            <mxPoint x="580" y="120" as="targetPoint" />
          </mxGeometry>
        </mxCell>
        <mxCell id="Ekcc26AsMmsR5pWDsE6a-6" value="&lt;font style=&quot;font-size: 15px&quot;&gt;Menu&lt;/font&gt;" style="rounded=1;whiteSpace=wrap;html=1;fontSize=12;glass=0;strokeWidth=1;shadow=0;" vertex="1" parent="WIyWlLk6GJQsqaUBKTNV-1">
          <mxGeometry x="520" y="120" width="120" height="40" as="geometry" />
        </mxCell>
        <mxCell id="Ekcc26AsMmsR5pWDsE6a-8" value="" style="endArrow=none;html=1;" edge="1" parent="WIyWlLk6GJQsqaUBKTNV-1">
          <mxGeometry width="50" height="50" relative="1" as="geometry">
            <mxPoint x="580" y="200" as="sourcePoint" />
            <mxPoint x="579.71" y="160" as="targetPoint" />
          </mxGeometry>
        </mxCell>
        <mxCell id="Ekcc26AsMmsR5pWDsE6a-10" value="" style="endArrow=none;html=1;" edge="1" parent="WIyWlLk6GJQsqaUBKTNV-1">
          <mxGeometry width="50" height="50" relative="1" as="geometry">
            <mxPoint x="-260" y="200" as="sourcePoint" />
            <mxPoint x="1046" y="200" as="targetPoint" />
          </mxGeometry>
        </mxCell>
        <mxCell id="Ekcc26AsMmsR5pWDsE6a-11" value="" style="endArrow=classic;html=1;" edge="1" parent="WIyWlLk6GJQsqaUBKTNV-1">
          <mxGeometry width="50" height="50" relative="1" as="geometry">
            <mxPoint x="-260" y="200" as="sourcePoint" />
            <mxPoint x="-259.71000000000004" y="240" as="targetPoint" />
          </mxGeometry>
        </mxCell>
        <mxCell id="Ekcc26AsMmsR5pWDsE6a-12" value="&lt;font style=&quot;font-size: 15px&quot;&gt;Dashboard&lt;/font&gt;" style="rounded=1;whiteSpace=wrap;html=1;fontSize=12;glass=0;strokeWidth=1;shadow=0;align=center;" vertex="1" parent="WIyWlLk6GJQsqaUBKTNV-1">
          <mxGeometry x="-320" y="240" width="120" height="40" as="geometry" />
        </mxCell>
        <mxCell id="Ekcc26AsMmsR5pWDsE6a-13" value="" style="endArrow=none;html=1;" edge="1" parent="WIyWlLk6GJQsqaUBKTNV-1">
          <mxGeometry width="50" height="50" relative="1" as="geometry">
            <mxPoint x="-260.41999999999985" y="320" as="sourcePoint" />
            <mxPoint x="-260.7099999999998" y="280" as="targetPoint" />
          </mxGeometry>
        </mxCell>
        <mxCell id="Ekcc26AsMmsR5pWDsE6a-14" value="" style="endArrow=none;html=1;" edge="1" parent="WIyWlLk6GJQsqaUBKTNV-1">
          <mxGeometry width="50" height="50" relative="1" as="geometry">
            <mxPoint x="-580" y="320" as="sourcePoint" />
            <mxPoint x="60" y="320" as="targetPoint" />
          </mxGeometry>
        </mxCell>
        <mxCell id="Ekcc26AsMmsR5pWDsE6a-15" value="" style="endArrow=classic;html=1;" edge="1" parent="WIyWlLk6GJQsqaUBKTNV-1">
          <mxGeometry width="50" height="50" relative="1" as="geometry">
            <mxPoint x="-260.71000000000004" y="320" as="sourcePoint" />
            <mxPoint x="-260.4200000000001" y="360" as="targetPoint" />
          </mxGeometry>
        </mxCell>
        <mxCell id="Ekcc26AsMmsR5pWDsE6a-16" value="&lt;font style=&quot;font-size: 15px&quot;&gt;Aksi Setoran&lt;/font&gt;" style="rounded=1;whiteSpace=wrap;html=1;fontSize=12;glass=0;strokeWidth=1;shadow=0;align=center;" vertex="1" parent="WIyWlLk6GJQsqaUBKTNV-1">
          <mxGeometry x="-320" y="360" width="120" height="40" as="geometry" />
        </mxCell>
        <mxCell id="Ekcc26AsMmsR5pWDsE6a-19" value="" style="endArrow=classic;html=1;" edge="1" parent="WIyWlLk6GJQsqaUBKTNV-1">
          <mxGeometry width="50" height="50" relative="1" as="geometry">
            <mxPoint x="-100.71000000000004" y="320" as="sourcePoint" />
            <mxPoint x="-100.42000000000007" y="360" as="targetPoint" />
          </mxGeometry>
        </mxCell>
        <mxCell id="Ekcc26AsMmsR5pWDsE6a-20" value="&lt;font style=&quot;font-size: 15px&quot;&gt;Aksi Penarikan&lt;/font&gt;" style="rounded=1;whiteSpace=wrap;html=1;fontSize=12;glass=0;strokeWidth=1;shadow=0;align=center;" vertex="1" parent="WIyWlLk6GJQsqaUBKTNV-1">
          <mxGeometry x="-160" y="360" width="120" height="40" as="geometry" />
        </mxCell>
        <mxCell id="Ekcc26AsMmsR5pWDsE6a-21" value="&lt;font style=&quot;font-size: 15px&quot;&gt;Transaksi Terakhir&lt;/font&gt;" style="rounded=1;whiteSpace=wrap;html=1;fontSize=12;glass=0;strokeWidth=1;shadow=0;align=center;" vertex="1" parent="WIyWlLk6GJQsqaUBKTNV-1">
          <mxGeometry y="360" width="120" height="40" as="geometry" />
        </mxCell>
        <mxCell id="Ekcc26AsMmsR5pWDsE6a-22" value="" style="endArrow=classic;html=1;" edge="1" parent="WIyWlLk6GJQsqaUBKTNV-1">
          <mxGeometry width="50" height="50" relative="1" as="geometry">
            <mxPoint x="59.289999999999964" y="320" as="sourcePoint" />
            <mxPoint x="59.57999999999993" y="360" as="targetPoint" />
          </mxGeometry>
        </mxCell>
        <mxCell id="Ekcc26AsMmsR5pWDsE6a-23" value="&lt;span style=&quot;font-size: 15px&quot;&gt;Keterangan Tabungan&lt;/span&gt;&lt;br&gt;&lt;span style=&quot;font-size: 11px&quot;&gt;&lt;br&gt;&lt;div style=&quot;text-align: left&quot;&gt;&lt;span style=&quot;font-size: 12px&quot;&gt;1. Saldo&lt;/span&gt;&lt;/div&gt;&lt;/span&gt;&lt;span&gt;&lt;div style=&quot;text-align: left&quot;&gt;&lt;span&gt;2. Nama Bank Sampah&lt;/span&gt;&lt;/div&gt;&lt;/span&gt;&lt;span&gt;&lt;div style=&quot;text-align: left&quot;&gt;&lt;span&gt;3. No Buku tabungan&lt;/span&gt;&lt;/div&gt;&lt;/span&gt;&lt;font style=&quot;font-size: 11px&quot;&gt;&lt;/font&gt;" style="rounded=1;whiteSpace=wrap;html=1;fontSize=12;glass=0;strokeWidth=1;shadow=0;align=center;spacingLeft=0;spacing=10;" vertex="1" parent="WIyWlLk6GJQsqaUBKTNV-1">
          <mxGeometry x="-490" y="360" width="150" height="120" as="geometry" />
        </mxCell>
        <mxCell id="Ekcc26AsMmsR5pWDsE6a-24" value="" style="endArrow=classic;html=1;" edge="1" parent="WIyWlLk6GJQsqaUBKTNV-1">
          <mxGeometry width="50" height="50" relative="1" as="geometry">
            <mxPoint x="-415.34000000000003" y="320" as="sourcePoint" />
            <mxPoint x="-415.05000000000007" y="360" as="targetPoint" />
          </mxGeometry>
        </mxCell>
        <mxCell id="Ekcc26AsMmsR5pWDsE6a-26" value="&lt;font&gt;&lt;span style=&quot;font-size: 15px&quot;&gt;Form Setoran&lt;/span&gt;&lt;br&gt;&lt;br&gt;&lt;div style=&quot;text-align: left&quot;&gt;&lt;span&gt;1. Jenis Sampah&lt;/span&gt;&lt;/div&gt;&lt;div style=&quot;text-align: left&quot;&gt;&lt;span&gt;2. Berat&lt;/span&gt;&lt;/div&gt;&lt;div style=&quot;text-align: left&quot;&gt;&lt;span&gt;3. Harga per Kg&lt;/span&gt;&lt;/div&gt;&lt;div style=&quot;text-align: left&quot;&gt;&lt;span&gt;4. Catatan&lt;/span&gt;&lt;/div&gt;&lt;/font&gt;" style="rounded=1;whiteSpace=wrap;html=1;fontSize=12;glass=0;strokeWidth=1;shadow=0;align=center;verticalAlign=top;spacing=10;" vertex="1" parent="WIyWlLk6GJQsqaUBKTNV-1">
          <mxGeometry x="-320" y="440" width="120" height="120" as="geometry" />
        </mxCell>
        <mxCell id="Ekcc26AsMmsR5pWDsE6a-27" value="" style="endArrow=classic;html=1;" edge="1" parent="WIyWlLk6GJQsqaUBKTNV-1">
          <mxGeometry width="50" height="50" relative="1" as="geometry">
            <mxPoint x="-260.71000000000026" y="400" as="sourcePoint" />
            <mxPoint x="-260.4200000000001" y="440" as="targetPoint" />
          </mxGeometry>
        </mxCell>
        <mxCell id="Ekcc26AsMmsR5pWDsE6a-28" value="&lt;font&gt;&lt;span style=&quot;font-size: 15px&quot;&gt;Form Penarikan&lt;/span&gt;&lt;br&gt;&lt;br&gt;&lt;div style=&quot;text-align: left&quot;&gt;&lt;span&gt;1. Jumlah uang&lt;/span&gt;&lt;/div&gt;&lt;div style=&quot;text-align: left&quot;&gt;&lt;span&gt;2. Numpad&lt;/span&gt;&lt;/div&gt;&lt;/font&gt;" style="rounded=1;whiteSpace=wrap;html=1;fontSize=12;glass=0;strokeWidth=1;shadow=0;align=center;verticalAlign=top;spacing=10;" vertex="1" parent="WIyWlLk6GJQsqaUBKTNV-1">
          <mxGeometry x="-160" y="440" width="120" height="120" as="geometry" />
        </mxCell>
        <mxCell id="Ekcc26AsMmsR5pWDsE6a-29" value="" style="endArrow=classic;html=1;" edge="1" parent="WIyWlLk6GJQsqaUBKTNV-1">
          <mxGeometry width="50" height="50" relative="1" as="geometry">
            <mxPoint x="-100.71000000000004" y="400" as="sourcePoint" />
            <mxPoint x="-100.42000000000007" y="440" as="targetPoint" />
          </mxGeometry>
        </mxCell>
        <mxCell id="Ekcc26AsMmsR5pWDsE6a-30" value="&lt;font style=&quot;font-size: 15px&quot;&gt;Detail Tranksaksi&lt;/font&gt;" style="rounded=1;whiteSpace=wrap;html=1;fontSize=12;glass=0;strokeWidth=1;shadow=0;align=center;spacing=3;" vertex="1" parent="WIyWlLk6GJQsqaUBKTNV-1">
          <mxGeometry y="440" width="120" height="40" as="geometry" />
        </mxCell>
        <mxCell id="Ekcc26AsMmsR5pWDsE6a-31" value="" style="endArrow=classic;html=1;" edge="1" parent="WIyWlLk6GJQsqaUBKTNV-1">
          <mxGeometry width="50" height="50" relative="1" as="geometry">
            <mxPoint x="59.289999999999964" y="400" as="sourcePoint" />
            <mxPoint x="59.57999999999993" y="440" as="targetPoint" />
          </mxGeometry>
        </mxCell>
        <mxCell id="Ekcc26AsMmsR5pWDsE6a-32" value="" style="endArrow=classic;html=1;" edge="1" parent="WIyWlLk6GJQsqaUBKTNV-1">
          <mxGeometry width="50" height="50" relative="1" as="geometry">
            <mxPoint x="-580.0000000000003" y="320" as="sourcePoint" />
            <mxPoint x="-579.7100000000002" y="360" as="targetPoint" />
          </mxGeometry>
        </mxCell>
        <mxCell id="Ekcc26AsMmsR5pWDsE6a-33" value="&lt;font style=&quot;font-size: 15px&quot;&gt;Pilih Buku Tabungan&lt;/font&gt;" style="rounded=1;whiteSpace=wrap;html=1;fontSize=12;glass=0;strokeWidth=1;shadow=0;align=center;" vertex="1" parent="WIyWlLk6GJQsqaUBKTNV-1">
          <mxGeometry x="-640" y="360" width="120" height="40" as="geometry" />
        </mxCell>
        <mxCell id="Ekcc26AsMmsR5pWDsE6a-34" value="&lt;font style=&quot;font-size: 15px&quot;&gt;Daftar Buku Tabungan&lt;/font&gt;" style="rounded=1;whiteSpace=wrap;html=1;fontSize=12;glass=0;strokeWidth=1;shadow=0;align=center;" vertex="1" parent="WIyWlLk6GJQsqaUBKTNV-1">
          <mxGeometry x="-640" y="440" width="120" height="40" as="geometry" />
        </mxCell>
        <mxCell id="Ekcc26AsMmsR5pWDsE6a-35" value="" style="endArrow=classic;html=1;" edge="1" parent="WIyWlLk6GJQsqaUBKTNV-1">
          <mxGeometry width="50" height="50" relative="1" as="geometry">
            <mxPoint x="-580.0000000000002" y="400" as="sourcePoint" />
            <mxPoint x="-579.7100000000003" y="440" as="targetPoint" />
          </mxGeometry>
        </mxCell>
        <mxCell id="Ekcc26AsMmsR5pWDsE6a-36" value="&lt;font style=&quot;font-size: 15px&quot;&gt;Transaksi&lt;/font&gt;" style="rounded=1;whiteSpace=wrap;html=1;fontSize=12;glass=0;strokeWidth=1;shadow=0;align=center;" vertex="1" parent="WIyWlLk6GJQsqaUBKTNV-1">
          <mxGeometry x="300" y="240" width="120" height="40" as="geometry" />
        </mxCell>
        <mxCell id="Ekcc26AsMmsR5pWDsE6a-37" value="" style="endArrow=classic;html=1;" edge="1" parent="WIyWlLk6GJQsqaUBKTNV-1">
          <mxGeometry width="50" height="50" relative="1" as="geometry">
            <mxPoint x="360" y="200" as="sourcePoint" />
            <mxPoint x="360.28999999999996" y="240" as="targetPoint" />
          </mxGeometry>
        </mxCell>
        <mxCell id="Ekcc26AsMmsR5pWDsE6a-38" value="" style="endArrow=none;html=1;" edge="1" parent="WIyWlLk6GJQsqaUBKTNV-1">
          <mxGeometry width="50" height="50" relative="1" as="geometry">
            <mxPoint x="359.8700000000001" y="320.0000000000001" as="sourcePoint" />
            <mxPoint x="359.58000000000015" y="280.0000000000001" as="targetPoint" />
          </mxGeometry>
        </mxCell>
        <mxCell id="Ekcc26AsMmsR5pWDsE6a-39" value="" style="endArrow=none;html=1;" edge="1" parent="WIyWlLk6GJQsqaUBKTNV-1">
          <mxGeometry width="50" height="50" relative="1" as="geometry">
            <mxPoint x="280" y="320" as="sourcePoint" />
            <mxPoint x="440" y="320" as="targetPoint" />
          </mxGeometry>
        </mxCell>
        <mxCell id="Ekcc26AsMmsR5pWDsE6a-40" value="&lt;font style=&quot;font-size: 15px&quot;&gt;Daftar Setoran&lt;/font&gt;" style="rounded=1;whiteSpace=wrap;html=1;fontSize=12;glass=0;strokeWidth=1;shadow=0;align=center;" vertex="1" parent="WIyWlLk6GJQsqaUBKTNV-1">
          <mxGeometry x="220" y="360" width="120" height="40" as="geometry" />
        </mxCell>
        <mxCell id="Ekcc26AsMmsR5pWDsE6a-41" value="" style="endArrow=classic;html=1;" edge="1" parent="WIyWlLk6GJQsqaUBKTNV-1">
          <mxGeometry width="50" height="50" relative="1" as="geometry">
            <mxPoint x="280" y="320" as="sourcePoint" />
            <mxPoint x="280.28999999999996" y="360" as="targetPoint" />
          </mxGeometry>
        </mxCell>
        <mxCell id="Ekcc26AsMmsR5pWDsE6a-42" value="&lt;font style=&quot;font-size: 15px&quot;&gt;Daftar Penarikan&lt;/font&gt;" style="rounded=1;whiteSpace=wrap;html=1;fontSize=12;glass=0;strokeWidth=1;shadow=0;align=center;" vertex="1" parent="WIyWlLk6GJQsqaUBKTNV-1">
          <mxGeometry x="380" y="360" width="120" height="40" as="geometry" />
        </mxCell>
        <mxCell id="Ekcc26AsMmsR5pWDsE6a-43" value="" style="endArrow=classic;html=1;" edge="1" parent="WIyWlLk6GJQsqaUBKTNV-1">
          <mxGeometry width="50" height="50" relative="1" as="geometry">
            <mxPoint x="440" y="320" as="sourcePoint" />
            <mxPoint x="440.28999999999996" y="360" as="targetPoint" />
          </mxGeometry>
        </mxCell>
        <mxCell id="Ekcc26AsMmsR5pWDsE6a-44" value="&lt;font style=&quot;font-size: 15px&quot;&gt;Detail Setoran&lt;/font&gt;" style="rounded=1;whiteSpace=wrap;html=1;fontSize=12;glass=0;strokeWidth=1;shadow=0;align=center;" vertex="1" parent="WIyWlLk6GJQsqaUBKTNV-1">
          <mxGeometry x="220" y="440" width="120" height="40" as="geometry" />
        </mxCell>
        <mxCell id="Ekcc26AsMmsR5pWDsE6a-45" value="" style="endArrow=classic;html=1;" edge="1" parent="WIyWlLk6GJQsqaUBKTNV-1">
          <mxGeometry width="50" height="50" relative="1" as="geometry">
            <mxPoint x="280" y="400" as="sourcePoint" />
            <mxPoint x="280.28999999999974" y="440" as="targetPoint" />
          </mxGeometry>
        </mxCell>
        <mxCell id="Ekcc26AsMmsR5pWDsE6a-46" value="&lt;font style=&quot;font-size: 15px&quot;&gt;Detail Penarikan&lt;/font&gt;" style="rounded=1;whiteSpace=wrap;html=1;fontSize=12;glass=0;strokeWidth=1;shadow=0;align=center;" vertex="1" parent="WIyWlLk6GJQsqaUBKTNV-1">
          <mxGeometry x="380" y="440" width="120" height="40" as="geometry" />
        </mxCell>
        <mxCell id="Ekcc26AsMmsR5pWDsE6a-47" value="" style="endArrow=classic;html=1;" edge="1" parent="WIyWlLk6GJQsqaUBKTNV-1">
          <mxGeometry width="50" height="50" relative="1" as="geometry">
            <mxPoint x="440" y="400" as="sourcePoint" />
            <mxPoint x="440.28999999999974" y="440" as="targetPoint" />
          </mxGeometry>
        </mxCell>
      </root>
    </mxGraphModel>
  </diagram>
</mxfile>
